<svg width="95" height="32" viewBox="0 0 95 32" fill="none" xmlns="http://www.w3.org/2000/svg">
<g clip-path="url(#clip0_2_301)">
<path d="M87.707 17.707L90.293 20.293C90.4805 20.4805 90.7348 20.5858 91 20.5858C91.2651 20.5858 91.5195 20.4805 91.707 20.293L94.293 17.707C94.923 17.077 94.477 16 93.586 16H88.414C87.524 16 87.077 17.077 87.707 17.707Z" fill="#7E7E7E"/>
</g>
<rect x="81" y="6" width="8" height="8" rx="4" fill="#D13639"/>
<g clip-path="url(#clip1_2_301)">
<path d="M14.2797 6.62028L0 13.2331L3.55799 26.774L6.26588 26.4415L5.52132 17.9275L6.41046 17.5314L7.94584 26.2348L12.5737 25.6666L11.7511 16.2692L12.6315 15.8774L14.3202 25.4526L19.0015 24.8772L18.1008 14.5762L18.9914 14.1801L20.8376 24.6517L25.4654 24.0835V9.42214L14.2797 6.62028ZM14.6151 27.1572L14.8507 28.4901L25.4654 30.2597V25.8242L14.6209 27.1572H14.6151ZM35.5047 24.3784V26.2044H37.7558C37.756 26.5747 37.6604 26.9388 37.4782 27.2613C37.2877 27.5825 37.0058 27.8397 36.6686 28C36.2653 28.1843 35.825 28.2733 35.3818 28.2603C34.8701 28.2744 34.3661 28.1333 33.9361 27.8555C33.5161 27.5639 33.1921 27.1544 33.005 26.6786C32.7718 26.0837 32.6602 25.4481 32.6768 24.8093C32.6598 24.1754 32.774 23.5449 33.0123 22.9573C33.2071 22.489 33.5335 22.0872 33.952 21.8007C34.3739 21.5267 34.8688 21.3866 35.3717 21.3987C35.6336 21.3964 35.8944 21.431 36.1466 21.5014C36.371 21.5657 36.5828 21.6679 36.7727 21.8035C36.953 21.9335 37.1087 22.0946 37.2324 22.2792C37.3618 22.4767 37.4593 22.6933 37.5216 22.9211H40.0184C39.953 22.3972 39.7829 21.8917 39.5181 21.4349C39.2547 20.9842 38.909 20.5869 38.4989 20.2638C38.0692 19.9279 37.5844 19.6691 37.0661 19.499C36.5033 19.3158 35.9145 19.225 35.3226 19.2301C34.63 19.2243 33.9428 19.352 33.2985 19.606C32.6794 19.8525 32.1197 20.2275 31.6561 20.7062C31.1711 21.2121 30.7965 21.8132 30.5559 22.4715C30.2812 23.2332 30.1475 24.0386 30.1612 24.8483C30.1612 25.9991 30.38 26.9914 30.8176 27.8251C31.2314 28.6281 31.8685 29.2944 32.6523 29.7436C33.4464 30.1673 34.3288 30.399 35.2286 30.4201C36.1285 30.4412 37.0207 30.2511 37.8338 29.8651C38.5374 29.5081 39.1232 28.956 39.521 28.2747C39.9307 27.5817 40.135 26.7528 40.134 25.788V24.377L35.5047 24.3784ZM66.5927 30.2785V19.3718H74.0629V21.3901H69.0577V23.8131H73.1044V25.8314H69.0577V28.2603H74.0745V30.2785H66.5927ZM81.3148 22.5727C81.3038 22.3852 81.2524 22.2024 81.164 22.0366C81.0757 21.8709 80.9525 21.7263 80.803 21.6127C80.5008 21.3828 80.0801 21.2686 79.5466 21.2686C79.2385 21.2583 78.9312 21.3074 78.6416 21.4132C78.4231 21.4929 78.2313 21.6321 78.0879 21.8151C77.9636 21.9824 77.8962 22.185 77.8956 22.3934C77.8888 22.5595 77.9284 22.7242 78.0098 22.8691C78.0956 23.0131 78.2145 23.1346 78.3568 23.2233C78.5236 23.3314 78.7033 23.4184 78.8917 23.4821C79.1113 23.5586 79.3353 23.6218 79.5625 23.6715L80.5211 23.8941C80.9909 23.994 81.4488 24.1433 81.8873 24.3394C82.2676 24.5089 82.6189 24.7373 82.9282 25.016C83.2115 25.274 83.4371 25.5888 83.5904 25.9398C83.7508 26.3187 83.8301 26.727 83.8232 27.1384C83.8394 27.7611 83.6604 28.3733 83.3114 28.8892C82.9424 29.4015 82.4326 29.7958 81.8439 30.0241C81.11 30.3075 80.3273 30.4431 79.5408 30.4231C78.7426 30.4402 77.9487 30.3022 77.2031 30.0169C76.5751 29.7729 76.0351 29.3458 75.6532 28.7909C75.2841 28.2453 75.0913 27.5649 75.0749 26.7495H77.4503C77.4534 27.0644 77.5527 27.3708 77.7348 27.6276C77.917 27.8845 78.1734 28.0795 78.4695 28.1865C78.8036 28.3135 79.1589 28.3753 79.5163 28.3687C79.8442 28.3759 80.1706 28.3224 80.4791 28.2111C80.7228 28.1251 80.939 27.9753 81.1051 27.7774C81.2516 27.5932 81.3316 27.365 81.3321 27.1297C81.3344 26.9187 81.2616 26.7138 81.1268 26.5514C80.9617 26.3712 80.7567 26.2321 80.5283 26.1451C80.2057 26.0137 79.8725 25.9102 79.5322 25.8357L78.3654 25.5538C77.4353 25.3321 76.7014 24.9823 76.1636 24.5042C75.6258 24.0261 75.3588 23.3785 75.3626 22.5611C75.3456 21.934 75.5345 21.3185 75.9004 20.8089C76.2835 20.2906 76.7995 19.8855 77.3939 19.6364C78.0793 19.3457 78.8182 19.2024 79.5625 19.2157C80.3034 19.199 81.0392 19.3426 81.7196 19.6364C82.2973 19.8878 82.7935 20.2953 83.1523 20.8132C83.4972 21.3321 83.6785 21.9425 83.6728 22.5655L81.3148 22.5727ZM64.8347 30.2785H62.3957V21.9872L62.1456 21.9843L59.682 30.2785H57.2445L54.8474 21.9843L54.5366 21.9872V30.2785H52.0976V19.3718H56.2426L58.336 26.6815H58.589L60.6825 19.3718H64.8347V30.2785ZM48.2577 30.2785H50.8991L47.237 19.3732H43.8901L40.2222 30.2785H42.8679L43.5807 27.8873H47.5449L48.2577 30.2785ZM44.1474 25.9847L45.3358 21.9872H45.784L46.9782 25.9847H44.1474ZM84.4231 20.5255C84.3099 20.5251 84.1992 20.4915 84.1049 20.4288C84.0106 20.3661 83.9367 20.277 83.8926 20.1727C83.8627 20.1018 83.8474 20.0256 83.8474 19.9486C83.8474 19.8717 83.8627 19.7955 83.8926 19.7246C83.9213 19.656 83.9631 19.5937 84.0154 19.5409C84.0686 19.4887 84.1308 19.4466 84.1991 19.4166C84.3428 19.3587 84.5034 19.3587 84.6472 19.4166C84.7157 19.4462 84.7779 19.4884 84.8308 19.5409C84.8835 19.5937 84.9257 19.656 84.9552 19.7246C84.985 19.7955 85.0004 19.8717 85.0004 19.9486C85.0004 20.0256 84.985 20.1018 84.9552 20.1727C84.9257 20.2413 84.8835 20.3036 84.8308 20.3564C84.7782 20.4093 84.7159 20.4515 84.6472 20.4807C84.5763 20.5104 84.5001 20.5256 84.4231 20.5255ZM84.4231 20.3679C84.4978 20.3688 84.5713 20.3493 84.6357 20.3115C84.6975 20.2768 84.7497 20.2271 84.7875 20.167C84.8244 20.1027 84.8438 20.03 84.8438 19.9559C84.8438 19.8818 84.8244 19.809 84.7875 19.7448C84.7491 19.6847 84.6964 19.6351 84.6342 19.6002C84.57 19.5633 84.4972 19.5439 84.4231 19.5439C84.3491 19.5439 84.2763 19.5633 84.2121 19.6002C84.153 19.6362 84.1035 19.6858 84.0675 19.7448C84.0296 19.8087 84.0096 19.8816 84.0096 19.9559C84.0096 20.0302 84.0296 20.1031 84.0675 20.167C84.1035 20.226 84.153 20.2756 84.2121 20.3115C84.276 20.3491 84.349 20.3686 84.4231 20.3679ZM84.2121 20.2017V19.6711H84.4694C84.5039 19.6704 84.5381 19.6778 84.5692 19.6928C84.5971 19.7061 84.6207 19.7272 84.6371 19.7535C84.6541 19.7824 84.6626 19.8154 84.6617 19.8489C84.6628 19.8826 84.6537 19.9158 84.6357 19.9443C84.6195 19.971 84.5952 19.9918 84.5663 20.0036C84.5346 20.0181 84.4999 20.025 84.4651 20.0238H84.2916V19.9197H84.4362C84.4551 19.9207 84.4737 19.9145 84.4882 19.9024C84.495 19.8953 84.5004 19.8869 84.5038 19.8777C84.5073 19.8685 84.5089 19.8587 84.5084 19.8489C84.5092 19.839 84.5077 19.8292 84.5042 19.8199C84.5007 19.8107 84.4953 19.8023 84.4882 19.7954C84.4737 19.7833 84.4551 19.7771 84.4362 19.7781H84.3566V20.2017H84.2121ZM84.5576 19.9588L84.6761 20.2017H84.5157L84.4072 19.9588H84.5576ZM40.8294 6.72148H43.2944V17.6282H40.8294V6.72148ZM55.0007 12.1749C55.0007 13.3719 54.7737 14.384 54.3197 15.2109C53.898 16.0093 53.2563 16.6701 52.4706 17.115C51.6628 17.5459 50.7614 17.7713 49.8459 17.7713C48.9303 17.7713 48.0289 17.5459 47.2211 17.115C46.4352 16.6684 45.7936 16.0062 45.372 15.2066C44.918 14.3719 44.691 13.3599 44.691 12.1705C44.691 10.9811 44.918 9.96671 45.372 9.12721C45.7928 8.33122 46.4324 7.67209 47.2153 7.22749C48.0234 6.79753 48.9247 6.57266 49.8401 6.57266C50.7554 6.57266 51.6568 6.79753 52.4648 7.22749C53.2505 7.67239 53.8922 8.33317 54.3139 9.13155C54.7679 9.9643 54.9949 10.9787 54.9949 12.1749M52.4865 12.1749C52.5052 11.5331 52.3956 10.8942 52.1641 10.2954C51.9809 9.82738 51.6623 9.42467 51.249 9.13878C50.8261 8.87881 50.3394 8.74118 49.843 8.74118C49.3466 8.74118 48.8599 8.87881 48.437 9.13878C48.0232 9.42489 47.7037 9.82744 47.5189 10.2954C47.0841 11.5106 47.0841 12.8391 47.5189 14.0543C47.703 14.5226 48.0227 14.9253 48.437 15.2109C48.8599 15.4709 49.3466 15.6085 49.843 15.6085C50.3394 15.6085 50.8261 15.4709 51.249 15.2109C51.6628 14.9256 51.9815 14.5227 52.1641 14.0543C52.3954 13.4555 52.5051 12.8165 52.4865 12.1749ZM35.6493 13.8259L36.9158 17.6282H39.6208L38.2126 13.5324H36.2999L36.1857 13.1796C36.55 13.1088 37.1731 12.9989 37.7254 12.623C38.1122 12.3599 38.4294 12.0068 38.6498 11.5941C38.8701 11.1813 38.987 10.7213 38.9904 10.2534C39.007 9.60722 38.8438 8.96908 38.5191 8.41012C38.2018 7.86886 37.7308 7.43409 37.1659 7.16099C36.5035 6.85427 35.7789 6.70578 35.0493 6.72726H30.6499V17.6282H33.1164V13.8259H35.6493ZM35.603 11.5691C35.2673 11.6925 34.911 11.7504 34.5534 11.7397H33.1164V8.72385H34.5491C34.9069 8.71355 35.2632 8.77449 35.5973 8.90312C35.8614 9.00818 36.0846 9.19582 36.2334 9.43805C36.3852 9.68224 36.4607 9.96613 36.4503 10.2534C36.462 10.5364 36.3874 10.8163 36.2363 11.0558C36.0867 11.2913 35.8644 11.4715 35.603 11.5691ZM55.2334 6.72148V8.74553H59.4695L59.5852 9.09974C59.2266 9.16914 58.6208 9.27612 58.0772 9.63467V17.6311H60.5162V8.73975H63.3528V6.7157L55.2334 6.72148Z" fill="#F9F9F9"/>
</g>
<defs>
<clipPath id="clip0_2_301">
<rect width="8" height="5" fill="white" transform="translate(87 16)"/>
</clipPath>
<clipPath id="clip1_2_301">
<rect width="85" height="27" fill="white" transform="translate(0 5)"/>
</clipPath>
</defs>
</svg>
