<svg width="662" height="96" viewBox="0 0 662 96" fill="none" xmlns="http://www.w3.org/2000/svg">
<path d="M590.257 18.6391H614.047L614.124 91.4623C614.124 92.3968 614.886 93.1675 615.83 93.1675L629.455 93.1579C630.399 93.1579 631.16 92.3968 631.16 91.4526L631.083 18.6391H660.915C661.792 18.6391 662.293 17.6179 661.734 16.9338L651.52 4.1592C651.099 3.63113 650.564 3.20459 649.955 2.9111C649.346 2.61761 648.679 2.46468 648.003 2.46362H590.257C589.312 2.46362 588.551 3.2247 588.551 4.16883V16.9435C588.551 17.8683 589.312 18.6391 590.257 18.6391ZM16.104 91.4719L85.8857 4.16883C86.435 3.48482 85.9435 2.46362 85.0667 2.46362H67.6164C66.2482 2.46362 64.9474 3.08983 64.0994 4.1592L14.5912 66.0864V4.1592C14.5912 3.21507 13.83 2.45399 12.8857 2.45399H-0.739184C-1.68348 2.45399 -2.4447 3.21507 -2.4447 4.1592V91.4623C-2.4447 92.4064 -1.68348 93.1675 -0.739184 93.1675H12.587C13.9553 93.1675 15.2464 92.5413 16.104 91.4719ZM65.3039 91.4719L89.3064 61.4428L113.309 91.4719C113.732 92.001 114.268 92.4281 114.879 92.7216C115.489 93.0151 116.158 93.1675 116.836 93.1675H130.162C131.106 93.1675 131.867 92.4064 131.867 91.4623V4.1592C131.867 3.2247 131.106 2.45399 130.162 2.45399H118.984C116.248 2.45399 113.656 3.69677 111.941 5.83551L43.5079 91.4526C42.9587 92.1367 43.4501 93.1579 44.327 93.1579H61.7772C63.1551 93.1675 64.4463 92.5413 65.3039 91.4719ZM114.822 27.6854V67.9072L98.7494 47.8011L114.822 27.6854ZM504.46 91.4526L434.679 4.14957C434.257 3.6215 433.722 3.19495 433.113 2.90146C432.504 2.60797 431.837 2.45504 431.162 2.45399H417.826C416.882 2.45399 416.12 3.21507 416.12 4.1592V91.4623C416.12 92.4064 416.882 93.1675 417.826 93.1675H431.152C432.52 93.1675 433.821 92.5413 434.669 91.4719L458.672 61.4428L482.674 91.4719C483.096 92 483.631 92.4265 484.24 92.72C484.848 93.0135 485.515 93.1664 486.191 93.1675H503.641C504.518 93.1675 505.01 92.1463 504.46 91.4526ZM449.219 47.8011L433.137 67.9168V27.6854L449.219 47.8011ZM257.189 0.190002C230.884 0.190002 209.56 21.51 209.56 47.8107C209.56 74.1115 230.884 95.4315 257.189 95.4315C283.495 95.4315 304.818 74.1115 304.818 47.8107C304.828 21.51 283.495 0.190002 257.189 0.190002ZM257.189 79.2464C240.288 79.2464 226.596 65.1712 226.596 47.8107C226.596 30.4503 240.288 16.3654 257.189 16.3654C274.09 16.3654 287.783 30.4407 287.783 47.8107C287.792 65.1712 274.09 79.2464 257.189 79.2464ZM559.683 4.1592V66.0864L510.174 4.14957C509.753 3.6215 509.218 3.19495 508.609 2.90146C508 2.60797 507.333 2.45504 506.657 2.45399H493.312C492.377 2.45399 491.606 3.21507 491.606 4.1592V46.2308C491.606 47.252 491.953 48.2443 492.599 49.0439L506.773 66.78C507.399 67.5604 508.652 67.1172 508.652 66.1249V29.5158L558.17 91.4719C558.591 92 559.126 92.4265 559.735 92.72C560.344 93.0135 561.011 93.1664 561.687 93.1675H575.013C575.957 93.1675 576.719 92.4064 576.719 91.4623V4.1592C576.719 3.2247 575.957 2.45399 575.013 2.45399H561.388C560.444 2.45399 559.683 3.2247 559.683 4.1592ZM393.216 23.0803V4.1592C393.216 3.21507 392.455 2.45399 391.511 2.45399H321.777C320.833 2.45399 320.072 3.21507 320.072 4.1592V91.4623C320.072 92.4064 320.833 93.1675 321.777 93.1675H335.402C336.346 93.1675 337.108 92.4064 337.108 91.4623V18.6487H376.18L349.807 51.6547C349.316 52.2713 349.316 53.1576 349.807 53.7838L379.938 91.4815C380.36 92.0096 380.895 92.4362 381.504 92.7296C382.113 93.0231 382.779 93.1761 383.455 93.1771H400.906C401.782 93.1771 402.274 92.1559 401.725 91.4719L370.755 52.7337L392.224 25.9127C392.86 25.0938 393.216 24.1015 393.216 23.0803ZM154.029 93.1675H194.461C195.829 93.1675 197.13 92.5413 197.978 91.4719L208.192 78.6876C208.741 78.0036 208.249 76.9824 207.373 76.9824H169.36V4.1592C169.36 3.21507 168.599 2.45399 167.654 2.45399H154.029C153.085 2.45399 152.324 3.21507 152.324 4.1592V91.4623C152.324 92.3968 153.095 93.1675 154.029 93.1675Z" fill="#ECE8E1"/>
</svg>
